<svg xmlns="http://www.w3.org/2000/svg" xmlns:xlink="http://www.w3.org/1999/xlink" width="195" height="112" viewBox="0 0 195 112"><defs><filter id="Rectangle_41" width="30" height="112" x="0" y="0" filterUnits="userSpaceOnUse"><feOffset dy="3" input="SourceAlpha"/><feGaussianBlur result="blur" stdDeviation="3"/><feFlood flood-opacity=".161"/><feComposite in2="blur" operator="in"/><feComposite in="SourceGraphic"/></filter><filter id="Rectangle_42" width="30" height="62" x="0" y="49" filterUnits="userSpaceOnUse"><feOffset dy="3" input="SourceAlpha"/><feGaussianBlur result="blur-2" stdDeviation="3"/><feFlood flood-opacity=".161"/><feComposite in2="blur-2" operator="in"/><feComposite in="SourceGraphic"/></filter></defs><g id="Group_12" data-name="Group 12" transform="translate(-1225 -1685)"><g filter="url(#Rectangle_41)" transform="matrix(1, 0, 0, 1, 1225, 1685)"><g id="Rectangle_41-2" fill="#fff" stroke="#707070" stroke-width="1" data-name="Rectangle 41" transform="translate(9 6)"><rect width="12" height="94" stroke="none" rx="5"/><rect width="11" height="93" x=".5" y=".5" fill="none" rx="4.5"/></g></g><g filter="url(#Rectangle_42)" transform="matrix(1, 0, 0, 1, 1225, 1685)"><g id="Rectangle_42-2" fill="#707070" stroke="#707070" stroke-width="1" data-name="Rectangle 42" transform="translate(9 55)"><rect width="12" height="44" stroke="none" rx="5"/><rect width="11" height="43" x=".5" y=".5" fill="none" rx="4.5"/></g></g><g id="Ellipse_24" fill="#f0a800" stroke="#fff" stroke-width="1" data-name="Ellipse 24" transform="translate(1229 1729)"><ellipse cx="10.5" cy="11" stroke="none" rx="10.5" ry="11"/><ellipse cx="10.5" cy="11" fill="none" rx="10" ry="10.5"/></g><text id="LEVEL:" font-family="Arial-BoldMT, Arial" font-size="25" font-weight="700" transform="translate(1266 1744)"><tspan x="0" y="0">LEVEL:</tspan></text><g id="Rectangle_40" fill="#054170" stroke="#fff" stroke-width="2" data-name="Rectangle 40" transform="translate(1362 1715)"><rect width="58" height="40" stroke="none" rx="5"/><rect width="56" height="38" x="1" y="1" fill="none" rx="4"/></g><text id="_2" fill="#f0a828" data-name="2" font-family="Arial-BoldMT, Arial" font-size="25" font-weight="700" transform="translate(1384 1744)"><tspan x="0" y="0">2</tspan></text></g></svg>