<svg xmlns="http://www.w3.org/2000/svg" xmlns:xlink="http://www.w3.org/1999/xlink" width="205" height="115" viewBox="0 0 205 115"><defs><filter id="Rectangle_38" width="30" height="115" x="0" y="0" filterUnits="userSpaceOnUse"><feOffset dy="3" input="SourceAlpha"/><feGaussianBlur result="blur" stdDeviation="3"/><feFlood flood-opacity=".161"/><feComposite in2="blur" operator="in"/><feComposite in="SourceGraphic"/></filter><filter id="Rectangle_43" width="30" height="90" x="0" y="25" filterUnits="userSpaceOnUse"><feOffset dy="3" input="SourceAlpha"/><feGaussianBlur result="blur-2" stdDeviation="3"/><feFlood flood-opacity=".161"/><feComposite in2="blur-2" operator="in"/><feComposite in="SourceGraphic"/></filter></defs><g id="Group_50" data-name="Group 50" transform="translate(-402 -2042)"><text id="LEVEL:" font-family="Arial-BoldMT, Arial" font-size="26" font-weight="700" transform="translate(448 2109)"><tspan x="0" y="0">LEVEL:</tspan></text><g id="Rectangle_40" fill="#054170" stroke="#fff" stroke-width="2" data-name="Rectangle 40" transform="translate(547 2079)"><rect width="60" height="42" stroke="none" rx="5"/><rect width="58" height="40" x="1" y="1" fill="none" rx="4"/></g><text id="_3" fill="#f0a828" data-name="3" font-family="Arial-BoldMT, Arial" font-size="26" font-weight="700" transform="translate(570 2109)"><tspan x="0" y="0">3</tspan></text><g filter="url(#Rectangle_38)" transform="matrix(1, 0, 0, 1, 402, 2042)"><g id="Rectangle_38-2" fill="#fff" stroke="#707070" stroke-width="1" data-name="Rectangle 38" transform="translate(9 6)"><rect width="12" height="97" stroke="none" rx="5"/><rect width="11" height="96" x=".5" y=".5" fill="none" rx="4.5"/></g></g><g filter="url(#Rectangle_43)" transform="matrix(1, 0, 0, 1, 402, 2042)"><g id="Rectangle_43-2" fill="#707070" stroke="#707070" stroke-width="1" data-name="Rectangle 43" transform="translate(9 31)"><rect width="12" height="72" stroke="none" rx="5"/><rect width="11" height="71" x=".5" y=".5" fill="none" rx="4.5"/></g></g><g id="Ellipse_23" fill="#f0a800" stroke="#fff" stroke-width="1" data-name="Ellipse 23" transform="translate(406 2065)"><circle cx="11" cy="11" r="11" stroke="none"/><circle cx="11" cy="11" r="10.5" fill="none"/></g></g></svg>